<?xml version="1.0" encoding="UTF-8" standalone="no"?>
<!-- Created with Inkscape (http://www.inkscape.org/) -->

<svg
   width="558"
   height="256"
   viewBox="0 0 147.6375 67.733333"
   version="1.1"
   id="svg5"
   inkscape:version="1.2 (dc2aedaf03, 2022-05-15)"
   sodipodi:docname="opencdms.svg"
   xmlns:inkscape="http://www.inkscape.org/namespaces/inkscape"
   xmlns:sodipodi="http://sodipodi.sourceforge.net/DTD/sodipodi-0.dtd"
   xmlns="http://www.w3.org/2000/svg"
   xmlns:svg="http://www.w3.org/2000/svg">
  <sodipodi:namedview
     id="namedview7"
     pagecolor="#ffffff"
     bordercolor="#666666"
     borderopacity="1.0"
     inkscape:showpageshadow="2"
     inkscape:pageopacity="0.0"
     inkscape:pagecheckerboard="0"
     inkscape:deskcolor="#d1d1d1"
     inkscape:document-units="mm"
     showgrid="false"
     inkscape:zoom="0.5946522"
     inkscape:cx="760.10818"
     inkscape:cy="296.81215"
     inkscape:window-width="1280"
     inkscape:window-height="778"
     inkscape:window-x="-6"
     inkscape:window-y="-6"
     inkscape:window-maximized="1"
     inkscape:current-layer="layer1" />
  <defs
     id="defs2">
    <rect
       x="68.947868"
       y="408.64224"
       width="593.62433"
       height="255.6116"
       id="rect317" />
    <pattern
       id="EMFhbasepattern"
       patternUnits="userSpaceOnUse"
       width="6"
       height="6"
       x="0"
       y="0" />
  </defs>
  <g
     inkscape:label="Layer 1"
     inkscape:groupmode="layer"
     id="layer1">
    <text
       xml:space="preserve"
       style="font-style:normal;font-variant:normal;font-weight:400;font-size:15.109px;line-height:125%;font-family:'Arial Rounded MT Bold';text-align:start;letter-spacing:0px;word-spacing:0px;text-anchor:start;fill:#000000;fill-opacity:1;stroke:none;stroke-width:0.472155"
       x="55.70266"
       y="40.721264"
       id="text16"
       transform="scale(1.0259748,0.97468281)"><tspan
         sodipodi:role="line"
         x="55.70266"
         y="40.721264"
         id="tspan14"
         style="stroke-width:0.472155"><tspan
           dx="0"
           dy="0"
           style="font-style:normal;font-variant:normal;font-weight:400;font-size:15.109px;font-family:'Arial Rounded MT Bold';fill:#ffff;stroke-width:0.472155"
           id="tspan12">OpenCDMS</tspan></tspan></text>
    <g
       id="g253"
       transform="matrix(1.2184222,0,0,1.2184222,1.0684328,5.5277843)">
      <path
         style="fill:#7f7f7f;fill-opacity:1;fill-rule:evenodd;stroke:none;stroke-width:0.472155"
         d="m 1.2195697,22.992498 c 0,-3.534176 3.0226211,-6.405679 6.7427718,-6.405679 3.7249935,0 6.7427695,2.871503 6.7427695,6.405679 0,3.538768 -3.017776,6.40568 -6.7427695,6.40568 -3.7201507,0 -6.7427718,-2.866912 -6.7427718,-6.40568 z"
         id="path18" />
      <path
         style="fill:#7f7f7f;fill-opacity:1;fill-rule:evenodd;stroke:none;stroke-width:0.472155"
         d="m 16.565188,22.992498 c 0,-3.534176 3.003245,-6.405679 6.704019,-6.405679 3.705617,0 6.704019,2.871503 6.704019,6.405679 0,3.538768 -2.998402,6.40568 -6.704019,6.40568 -3.700774,0 -6.704019,-2.866912 -6.704019,-6.40568 z"
         id="path20" />
      <path
         style="fill:#7f7f7f;fill-opacity:1;fill-rule:evenodd;stroke:none;stroke-width:0.472155"
         d="m 8.8923778,19.237442 c 0,-3.534176 3.0226232,-6.405679 6.7427722,-6.405679 3.724993,0 6.742771,2.871503 6.742771,6.405679 0,3.538769 -3.017778,6.40568 -6.742771,6.40568 -3.720149,0 -6.7427722,-2.866911 -6.7427722,-6.40568 z"
         id="path22" />
      <path
         style="fill:#7f7f7f;fill-opacity:1;fill-rule:evenodd;stroke:none;stroke-width:0.472155"
         d="m 7.9623415,19.752845 v 9.645333 H 23.307958 v -9.645333 z"
         id="path24" />
      <path
         style="fill:#bfbfbf;fill-opacity:1;fill-rule:evenodd;stroke:none;stroke-width:0.472155"
         d="m 2.5371222,23.139751 c 0,-2.926727 2.3638458,-5.301247 5.2702117,-5.301247 2.9112121,0 5.2702131,2.37452 5.2702131,5.301247 0,2.931337 -2.359001,5.301247 -5.2702131,5.301247 -2.9063659,0 -5.2702117,-2.36991 -5.2702117,-5.301247 z"
         id="path26" />
      <path
         style="fill:#f2f2f2;fill-opacity:1;fill-rule:evenodd;stroke:none;stroke-width:0.472155"
         d="m 17.495224,23.066125 c 0,-2.968159 2.533383,-5.374874 5.657728,-5.374874 3.129187,0 5.657728,2.406715 5.657728,5.374874 0,2.97275 -2.528541,5.374873 -5.657728,5.374873 -3.124345,0 -5.657728,-2.402123 -5.657728,-5.374873 z"
         id="path28" />
      <path
         style="fill:#bfbfbf;fill-opacity:1;fill-rule:evenodd;stroke:none;stroke-width:0.472155"
         d="m 10.054924,19.384695 c 0,-2.968141 2.533384,-5.374873 5.657728,-5.374873 3.12919,0 5.657728,2.406732 5.657728,5.374873 0,2.972751 -2.528538,5.374874 -5.657728,5.374874 -3.124344,0 -5.657728,-2.402123 -5.657728,-5.374874 z"
         id="path30" />
      <path
         style="fill:#bfbfbf;fill-opacity:1;fill-rule:evenodd;stroke:none;stroke-width:0.472155"
         d="m 9.2798939,20.341875 v 8.099123 H 22.145411 v -8.099123 z"
         id="path32" />
      <path
         style="fill:#ffffe1;fill-opacity:1;fill-rule:evenodd;stroke:none;stroke-width:0.472155"
         d="m 15.480144,22.808423 c 0,-5.305856 4.529087,-9.60851 10.114157,-9.60851 5.589912,0 10.114156,4.302654 10.114156,9.60851 0,5.310449 -4.524244,9.608511 -10.114156,9.608511 -5.58507,0 -10.114157,-4.298062 -10.114157,-9.608511 z"
         id="path34" />
      <path
         style="fill:none;stroke:#404040;stroke-width:3.77705px;stroke-linecap:butt;stroke-linejoin:miter;stroke-miterlimit:8;stroke-dasharray:none;stroke-opacity:1"
         d="m 15.480144,22.808423 c 0,-5.305856 4.529087,-9.60851 10.114157,-9.60851 5.589912,0 10.114156,4.302654 10.114156,9.60851 0,5.310449 -4.524244,9.608511 -10.114156,9.608511 -5.58507,0 -10.114157,-4.298062 -10.114157,-9.608511"
         id="path36" />
      <path
         style="fill:#404040;fill-opacity:1;fill-rule:evenodd;stroke:none;stroke-width:0.472155"
         d="m 37.568532,22.845228 c 0,-0.607432 0.523145,-1.104415 1.162546,-1.104415 h 3.410138 c 0.644245,0 1.162546,0.496983 1.162546,1.104415 v 0 c 0,0.612041 -0.518301,1.104432 -1.162546,1.104432 h -3.410138 c -0.639401,0 -1.162546,-0.492391 -1.162546,-1.104432 z"
         id="path38" />
      <path
         style="fill:#404040;fill-opacity:1;fill-rule:evenodd;stroke:none;stroke-width:0.472155"
         d="m 25.32304,10.770169 c -0.639401,0 -1.162547,-0.492391 -1.162547,-1.1044324 V 6.3524572 c 0,-0.6074317 0.523146,-1.1044323 1.162547,-1.1044323 v 0 c 0.644243,0 1.162546,0.4970006 1.162546,1.1044323 v 3.3132794 c 0,0.6120414 -0.518303,1.1044324 -1.162546,1.1044324 z"
         id="path40" />
      <path
         style="fill:#404040;fill-opacity:1;fill-rule:evenodd;stroke:none;stroke-width:0.472155"
         d="m 38.580917,35.624374 c -0.435956,0.450977 -1.172236,0.478581 -1.646942,0.06436 L 34.395747,33.456875 C 33.921041,33.03811 33.891978,32.33865 34.327927,31.887672 v 0 c 0.440798,-0.446368 1.177076,-0.473989 1.651784,-0.05983 l 2.538226,2.231858 c 0.474707,0.418765 0.503772,1.118226 0.06296,1.564611 z"
         id="path42" />
      <path
         style="fill:#404040;fill-opacity:1;fill-rule:evenodd;stroke:none;stroke-width:0.472155"
         d="m 38.740766,10.650519 c -0.440799,-0.446368 -1.177079,-0.473989 -1.651785,-0.05983 l -2.538226,2.231859 c -0.474708,0.414155 -0.498927,1.118225 -0.06296,1.56461 v 0 c 0.435956,0.450961 1.177079,0.478581 1.646942,0.06436 l 2.538228,-2.231876 c 0.474706,-0.418765 0.503769,-1.118225 0.06782,-1.569203 z"
         id="path44" />
      <path
         style="fill:#404040;fill-opacity:1;fill-rule:evenodd;stroke:none;stroke-width:0.472155"
         d="m 17.122241,13.862569 c -0.435955,0.45096 -1.172235,0.478581 -1.646942,0.05983 l -2.538227,-2.231858 c -0.474707,-0.414173 -0.50377,-1.113634 -0.06782,-1.564611 v 0 C 13.31005,9.6749522 14.04633,9.6473487 14.521036,10.0661 l 2.538228,2.231859 c 0.474706,0.414155 0.50377,1.113633 0.06296,1.564611 z"
         id="path46" />
      <path
         style="fill:#404040;fill-opacity:1;fill-rule:evenodd;stroke:none;stroke-width:0.472155"
         d="m 8.5823663,22.845228 c 0,-0.607432 0.5231457,-1.104415 1.1625467,-1.104415 h 3.48764 c 0.644244,0 1.162547,0.496983 1.162547,1.104415 v 0 c 0,0.612041 -0.518303,1.104432 -1.162547,1.104432 h -3.48764 c -0.639401,0 -1.1625467,-0.492391 -1.1625467,-1.104432 z"
         id="path48" />
      <path
         style="fill:#7f7f7f;fill-opacity:1;fill-rule:evenodd;stroke:none;stroke-width:0.472155"
         d="m 5.7147509,34.404901 c 0,-4.1462 3.5409242,-7.510094 7.9053181,-7.510094 4.369237,0 7.905317,3.363894 7.905317,7.510094 0,4.150809 -3.53608,7.510112 -7.905317,7.510112 -4.3643939,0 -7.9053181,-3.359303 -7.9053181,-7.510112 z"
         id="path50" />
      <path
         style="fill:#7f7f7f;fill-opacity:1;fill-rule:evenodd;stroke:none;stroke-width:0.472155"
         d="m 23.772977,34.404901 c 0,-4.1462 3.540924,-7.510094 7.905318,-7.510094 4.369237,0 7.905317,3.363894 7.905317,7.510094 0,4.150809 -3.53608,7.510112 -7.905317,7.510112 -4.364394,0 -7.905318,-3.359303 -7.905318,-7.510112 z"
         id="path52" />
      <path
         style="fill:#7f7f7f;fill-opacity:1;fill-rule:evenodd;stroke:none;stroke-width:0.472155"
         d="m 14.782614,29.98719 c 0,-4.1462 3.540924,-7.510095 7.905319,-7.510095 4.369239,0 7.905318,3.363895 7.905318,7.510095 0,4.150809 -3.536079,7.510111 -7.905318,7.510111 -4.364395,0 -7.905319,-3.359302 -7.905319,-7.510111 z"
         id="path54" />
      <path
         style="fill:#7f7f7f;fill-opacity:1;fill-rule:evenodd;stroke:none;stroke-width:0.472155"
         d="M 13.620069,30.576219 V 41.915013 H 31.678295 V 30.576219 Z"
         id="path56" />
      <path
         style="fill:#f2f2f2;fill-opacity:1;fill-rule:evenodd;stroke:none;stroke-width:0.472155"
         d="m 7.3423167,34.478528 c 0,-3.492745 2.9693373,-6.332036 6.6265143,-6.332036 3.662024,0 6.626517,2.839291 6.626517,6.332036 0,3.497354 -2.964493,6.332053 -6.626517,6.332053 -3.657177,0 -6.6265143,-2.834699 -6.6265143,-6.332053 z"
         id="path58" />
      <path
         style="fill:#f2f2f2;fill-opacity:1;fill-rule:evenodd;stroke:none;stroke-width:0.472155"
         d="m 24.85802,34.478528 c 0,-3.492745 2.988714,-6.332036 6.665268,-6.332036 3.681398,0 6.665268,2.839291 6.665268,6.332036 0,3.497354 -2.98387,6.332053 -6.665268,6.332053 -3.676554,0 -6.665268,-2.834699 -6.665268,-6.332053 z"
         id="path60" />
      <path
         style="fill:#f2f2f2;fill-opacity:1;fill-rule:evenodd;stroke:none;stroke-width:0.472155"
         d="m 16.100169,30.171265 c 0,-3.474343 2.969337,-6.295231 6.626516,-6.295231 3.662022,0 6.626517,2.820888 6.626517,6.295231 0,3.478952 -2.964495,6.29523 -6.626517,6.29523 -3.657179,0 -6.626516,-2.816278 -6.626516,-6.29523 z"
         id="path62" />
      <path
         style="fill:#f2f2f2;fill-opacity:1;fill-rule:evenodd;stroke:none;stroke-width:0.472155"
         d="m 15.17013,31.238875 v 9.571706 h 15.113108 v -9.571706 z"
         id="path64" />
    </g>
    <text
       xml:space="preserve"
       transform="scale(0.26458333)"
       id="text315"
       style="font-style:normal;font-weight:normal;font-size:40px;line-height:1.25;font-family:sans-serif;letter-spacing:0px;word-spacing:0px;white-space:pre;shape-inside:url(#rect317);display:inline;fill:#000000;fill-opacity:1;stroke:none" />
  </g>
</svg>
